<svg width="390" height="242" viewBox="0 0 390 242" fill="none" xmlns="http://www.w3.org/2000/svg">
<path d="M84.9984 54.7992C84.9984 54.7992 118.098 0.699219 185.798 0.699219C253.498 0.699219 285.098 53.1992 285.098 53.1992H376.998L373.398 75.7992C373.398 75.7992 370.698 84.7992 366.598 85.6992H372.898C372.898 85.6992 374.998 93.5992 362.398 120.899H389.198C389.198 120.899 390.298 168.699 332.498 191.299C332.498 191.299 302.598 200.799 287.298 184.499C287.298 184.499 256.898 241.199 185.998 241.199C115.098 241.199 82.8984 182.899 82.8984 182.899H0.398438L13.4984 159.299H4.59844L15.0984 139.899H32.9984L36.1984 132.499H27.7984L48.2984 94.6992H59.7984L64.4984 83.1992H54.4984L69.7984 54.7992H84.9984Z" fill="white"/>
<path d="M186.798 228.599C244.798 228.599 291.798 180.899 291.798 121.999C291.798 63.0992 244.798 15.3992 186.798 15.3992C128.798 15.3992 81.7984 63.0992 81.7984 121.999C81.7984 180.899 128.798 228.599 186.798 228.599Z" fill="#FAB624"/>
<path d="M269.298 53.0992C267.998 51.5992 266.098 48.3992 253.198 37.0992C234.198 20.5992 209.098 12.9992 185.398 12.9992C167.998 12.9992 152.698 16.8992 135.898 26.1992C114.298 37.9992 105.498 51.6992 103.298 54.4992C101.698 56.5992 101.398 57.6992 102.498 58.2992C103.298 58.6992 104.698 57.0992 105.998 55.2992C112.398 46.7992 120.798 38.4992 129.598 33.4992C132.398 33.8992 136.198 37.6992 137.698 39.7992C131.998 42.8992 122.598 49.9992 119.098 52.7992C115.998 55.1992 114.998 56.4992 115.798 57.4992C116.498 58.2992 118.898 56.6992 120.798 55.0992C124.198 52.2992 134.298 45.1992 139.298 42.4992C142.698 46.3992 141.598 53.7992 140.398 55.4992C139.698 56.3992 139.698 57.2992 140.398 57.6992C141.098 58.0992 141.898 57.0992 142.898 55.5992C145.298 52.2992 144.298 44.0992 142.298 41.1992C148.398 37.4992 157.198 34.8992 162.498 33.6992C162.998 34.5992 169.398 53.3992 170.598 56.6992C171.298 58.5992 171.998 60.7992 173.298 60.2992C174.198 59.9992 173.598 57.8992 172.798 55.8992C171.798 53.2992 166.998 37.5992 165.498 32.8992C167.298 31.8992 177.798 29.7992 180.498 29.8992C179.198 36.7992 183.998 39.5992 189.598 43.1992C192.598 45.0992 211.098 55.7992 214.998 58.1992C217.198 59.5992 218.898 60.4992 219.398 59.7992C219.898 58.9992 218.398 57.4992 216.298 56.3992C214.598 55.3992 197.398 45.3992 190.198 40.7992C184.998 37.5992 182.198 33.9992 183.498 29.4992C185.198 28.9992 190.398 28.9992 195.798 28.9992C232.598 29.2992 262.198 50.4992 265.498 53.7992C267.198 55.4992 269.498 56.9992 270.398 56.2992C271.098 55.9992 270.098 53.9992 269.298 53.0992ZM140.798 38.4992C139.798 36.7992 135.098 32.5992 132.598 31.6992C138.498 27.3992 152.198 21.0992 157.398 19.9992C158.298 21.4992 160.698 27.8992 161.498 30.4992C156.998 31.4992 144.798 35.9992 140.798 38.4992ZM181.098 26.6992C176.298 26.9992 167.598 28.8992 164.498 29.7992C163.698 27.6992 161.498 21.1992 160.798 19.1992C169.698 16.6992 179.898 15.8992 187.898 16.4992C185.598 18.0992 181.898 24.6992 181.098 26.6992ZM204.998 26.3992C196.998 25.7992 190.498 25.5992 184.798 26.1992C186.498 22.0992 189.698 18.0992 192.298 16.4992C197.698 16.6992 203.298 17.4992 207.898 18.3992C222.198 21.2992 244.298 29.8992 253.898 42.6992C241.098 34.0992 219.898 27.3992 204.998 26.3992Z" fill="#0B1A23"/>
<path d="M277.298 179.299C278.698 176.799 279.798 175.399 278.598 174.699C277.498 174.099 276.498 176.499 275.198 178.599C270.898 186.099 266.198 192.299 255.598 201.899C243.898 212.599 230.298 218.799 225.598 220.399C221.598 209.199 206.298 161.199 205.898 159.799C205.298 157.699 204.798 157.099 204.098 157.399C203.298 157.699 203.798 158.799 204.198 160.599C204.598 162.399 222.798 219.099 223.398 221.199C219.798 222.999 205.198 227.099 194.898 227.399C185.698 227.699 175.098 227.399 169.698 226.099C163.398 220.999 148.898 200.599 143.498 189.799C136.998 176.999 132.798 165.299 131.698 160.299C131.198 157.899 130.498 156.199 129.298 156.499C127.998 156.799 128.698 158.699 129.498 161.199C131.498 167.799 134.598 177.099 141.298 190.399C148.398 204.499 161.098 220.899 164.798 225.499C153.198 222.999 139.098 217.599 125.698 207.699C114.198 199.099 104.198 188.099 99.1984 180.099C98.2984 178.699 97.2984 176.799 96.0984 177.599C95.4984 177.999 96.1984 179.599 97.0984 180.999C104.398 193.999 121.998 212.399 144.698 222.599C171.098 234.399 199.798 233.699 225.698 223.799C248.098 214.899 267.598 196.999 277.298 179.299Z" fill="#0B1A23"/>
<path d="M234.698 132.999C224.898 144.899 219.298 148.999 209.398 148.999C206.098 148.999 204.298 148.199 205.198 146.599L216.998 122.899H221.498C226.498 122.899 225.798 127.099 224.498 132.799C224.198 133.599 224.898 133.699 225.498 132.999L236.698 113.299C237.298 111.999 235.798 111.799 235.098 112.699C229.498 120.399 223.598 119.799 220.998 119.799H218.898L231.498 95.6992H236.598C242.998 96.0992 245.998 101.499 244.198 114.599H246.898L256.198 96.2992C256.998 94.6992 255.298 93.2992 253.598 93.2992H190.698C187.098 93.2992 186.898 96.0992 190.398 96.0992C193.298 96.0992 193.098 100.099 190.498 102.099L163.798 123.299L169.198 148.299C169.598 150.199 170.798 151.099 172.898 151.099H224.998C227.198 151.099 228.098 150.199 228.698 149.299L238.198 133.099C239.298 130.799 236.298 130.999 234.698 132.999ZM198.298 121.499H193.698C193.398 121.499 193.098 121.799 193.098 122.099C193.098 122.399 193.398 122.699 193.698 122.699H198.298C199.898 122.699 201.398 122.899 200.998 123.599L188.998 146.399C187.498 149.199 184.398 148.499 183.898 146.299L177.898 115.499L198.898 99.2992C200.998 97.4992 204.998 94.5992 207.098 94.6992H211.598C214.398 94.6992 215.298 95.9992 214.798 97.6992L213.998 99.2992C213.498 100.199 211.798 100.299 210.498 100.299H207.798C207.498 100.299 207.198 100.599 207.198 100.899C207.198 101.199 207.498 101.499 207.798 101.499H210.398C211.498 101.499 212.998 101.499 212.398 102.399L202.698 120.899C202.098 121.399 200.098 121.499 198.298 121.499Z" fill="#542C81"/>
<path d="M155.198 148.399C153.798 148.399 152.798 147.399 152.498 146.399C151.998 144.999 152.098 142.699 152.598 141.699L176.898 98.6992C177.298 97.8992 178.298 96.1992 179.498 96.1992C181.698 96.1992 182.598 93.2992 178.898 93.2992H159.498C155.898 93.2992 155.898 96.0992 159.298 96.0992C160.698 96.0992 161.298 97.4992 160.898 98.3992L155.498 108.099C154.798 109.199 153.298 109.299 151.798 109.299H147.198C146.898 109.299 146.598 109.599 146.598 109.899C146.598 110.199 146.898 110.499 147.198 110.499H151.798C153.098 110.499 154.098 110.899 153.298 112.399L135.398 145.099C134.098 146.899 131.598 147.299 131.698 143.799L138.098 95.8992C138.398 94.3992 137.998 93.3992 136.298 93.3992H126.598C125.398 93.3992 124.698 93.9992 124.198 94.6992L120.798 98.9992C120.298 99.4992 119.398 99.4992 118.298 99.4992H110.198C109.898 99.4992 109.598 99.7992 109.598 100.099C109.598 100.399 109.898 100.699 110.198 100.699H116.798C117.998 100.699 119.398 100.999 118.898 101.499L109.598 113.099C109.298 113.399 108.398 113.499 107.798 113.499H105.098C104.798 113.499 104.498 113.799 104.498 114.099C104.498 114.399 104.798 114.699 105.098 114.699H107.298C107.998 114.699 107.998 114.999 107.698 115.299L98.9984 126.199C98.4984 126.599 97.6984 126.699 96.7984 126.699H89.0984C88.7984 126.699 88.4984 126.999 88.4984 127.299C88.4984 127.599 88.7984 127.899 89.0984 127.899H95.6984C96.6984 127.899 97.4984 128.099 96.9984 128.799L84.6984 144.299C82.2984 147.299 71.1984 148.699 68.9984 148.699L110.798 70.4992C111.198 69.5992 112.798 68.1992 114.298 68.1992H123.198C127.298 68.1992 127.198 65.3992 123.598 65.3992H79.1984C75.5984 65.3992 75.4984 68.1992 79.5984 68.1992H87.8984C90.2984 68.1992 90.9984 69.5992 90.3984 70.7992L89.1984 72.9992C88.7984 73.6992 88.1984 73.9992 85.9984 73.9992H71.2984C70.9984 73.9992 70.6984 74.2992 70.6984 74.5992C70.6984 74.8992 70.9984 75.1992 71.2984 75.1992H85.8984C86.6984 75.1992 87.8984 75.3992 87.1984 76.8992L85.0984 80.6992C84.6984 81.2992 83.7984 81.5992 82.7984 81.5992H76.1984C75.8984 81.5992 75.5984 81.8992 75.5984 82.1992C75.5984 82.4992 75.8984 82.7992 76.1984 82.7992H82.7984C83.7984 82.7992 83.7984 83.3992 83.1984 84.2992L78.4984 93.0992C78.0984 93.8992 77.2984 93.9992 75.7984 93.9992H73.0984C72.7984 93.9992 72.4984 94.2992 72.4984 94.5992C72.4984 94.8992 72.7984 95.1992 73.0984 95.1992H75.7984C76.7984 95.1992 77.0984 95.7992 76.5984 96.6992L72.7984 103.899C72.1984 104.899 71.3984 105.399 68.8984 105.399H54.2984C53.9984 105.399 53.6984 105.699 53.6984 105.999C53.6984 106.299 53.9984 106.599 54.2984 106.599H68.8984C70.5984 106.599 71.1984 107.399 70.4984 108.599L62.9984 122.799C62.4984 123.399 61.2984 123.499 59.2984 123.499H44.5984C44.2984 123.499 43.9984 123.799 43.9984 124.099C43.9984 124.399 44.2984 124.699 44.5984 124.699H59.0984C60.8984 124.699 61.9984 124.799 61.3984 125.699L57.0984 133.899C56.2984 135.199 53.9984 135.199 53.1984 135.199H48.5984C48.2984 135.199 47.9984 135.499 47.9984 135.799C47.9984 136.099 48.2984 136.399 48.5984 136.399H53.1984C54.7984 136.399 55.6984 136.699 55.2984 137.599L49.4984 148.499C48.9984 149.499 46.6984 149.499 44.9984 149.499H22.2984C21.9984 149.499 21.6984 149.799 21.6984 150.099C21.6984 150.399 21.9984 150.699 22.2984 150.699H44.8984C46.3984 150.699 48.1984 150.899 47.5984 152.099L43.8984 159.099C43.4984 159.699 42.2984 159.699 40.4984 159.699H35.8984C35.5984 159.699 35.2984 159.999 35.2984 160.299C35.2984 160.599 35.5984 160.899 35.8984 160.899H40.4984C41.5984 160.899 42.9984 160.999 42.4984 161.899L40.1984 166.299C39.3984 167.399 38.6984 168.399 36.9984 168.399H25.2984C21.1984 168.399 21.2984 171.199 24.8984 171.199H91.3984C93.3984 171.199 93.3984 170.899 94.3984 169.499L104.198 152.299H154.598C158.298 151.299 157.298 148.499 155.198 148.399ZM115.598 143.299C115.098 146.199 112.298 147.999 108.698 148.899L104.998 149.799L108.098 144.299C108.898 142.799 107.098 141.899 105.198 144.099C92.2984 159.099 88.2984 166.299 68.3984 166.399H62.9984C61.3984 166.399 59.6984 165.799 60.6984 164.199L67.6984 151.099H94.3984C97.9984 151.099 97.0984 148.299 94.9984 148.199C93.5984 148.199 91.9984 147.299 90.9984 145.599C90.6984 145.099 89.9984 143.199 91.0984 141.799L101.298 128.199H118.098L115.598 143.299ZM119.498 126.199H102.998L123.998 98.4992L119.498 126.199Z" fill="#542C81"/>
<path d="M371.598 134.699C371.298 133.299 370.798 134.199 369.898 135.899C369.598 136.399 368.698 136.399 367.898 136.399H365.198C364.898 136.399 364.598 136.699 364.598 136.999C364.598 137.299 364.898 137.599 365.198 137.599H367.898C368.898 137.599 368.898 138.299 368.498 139.299C366.598 143.199 364.798 145.799 362.298 148.999C361.898 149.499 360.898 149.899 360.098 149.899H357.398C357.098 149.899 356.798 150.199 356.798 150.499C356.798 150.799 357.098 151.099 357.398 151.099H360.098C361.398 151.099 360.098 151.899 359.898 152.199C355.298 158.399 351.998 161.199 348.698 163.899C348.298 164.199 346.298 164.099 345.098 164.099H342.398C342.098 164.099 341.798 164.399 341.798 164.699C341.798 164.999 342.098 165.299 342.398 165.299H344.998C346.998 165.299 345.498 166.499 345.198 166.699C337.898 172.699 327.198 174.699 322.298 174.099C306.198 172.099 302.998 159.899 301.798 155.099C301.498 154.099 300.798 151.999 300.498 150.699C299.998 148.099 307.198 147.499 309.298 148.699C312.398 150.799 319.298 152.799 324.998 152.799C330.098 152.799 340.698 149.099 343.698 140.299C346.898 131.199 338.998 121.299 335.498 117.699C331.098 113.299 326.898 106.299 328.698 101.099C329.998 97.2992 332.198 95.4992 336.998 95.4992C343.098 95.4992 347.598 99.3992 347.598 105.099C347.598 105.599 347.298 106.199 346.898 106.199H344.698C344.398 106.199 344.098 106.499 344.098 106.799C344.098 107.099 344.398 107.399 344.698 107.399H346.798C347.398 107.399 347.698 107.799 347.598 108.599C347.198 110.499 347.098 111.799 346.598 113.599C346.398 114.699 347.998 115.499 348.498 114.699L358.198 97.4992C358.898 96.1992 357.298 95.7992 356.198 96.1992C353.498 97.0992 349.298 97.7992 347.698 96.6992C344.098 94.0992 340.798 92.4992 335.798 92.4992C327.198 92.4992 321.198 94.5992 317.398 101.699C317.098 102.299 316.198 102.199 315.498 102.199H313.798C313.498 102.199 313.198 102.499 313.198 102.799C313.198 103.099 313.498 103.399 313.798 103.399H315.198C315.798 103.399 316.198 103.599 315.898 104.299C315.598 104.899 315.398 105.599 315.198 106.299C314.198 109.399 314.498 113.599 316.098 117.399C316.198 117.699 315.898 117.799 315.298 117.799H312.598C312.298 117.799 311.998 118.099 311.998 118.399C311.998 118.699 312.298 118.999 312.598 118.999H315.298C316.498 118.999 316.798 119.099 317.298 119.799C318.698 121.699 320.098 123.099 321.698 125.299C322.298 125.999 319.898 126.199 318.598 126.199H308.298C307.998 126.199 307.698 126.499 307.698 126.799C307.698 127.099 307.998 127.399 308.298 127.399H318.798C320.498 127.399 323.398 127.399 323.698 127.699C326.298 130.699 329.298 135.199 329.798 138.899C329.898 139.999 329.498 140.499 328.198 140.499H326.798C326.498 140.499 326.198 140.799 326.198 141.099C326.198 141.399 326.498 141.699 326.798 141.699H328.098C329.198 141.699 329.798 141.899 329.498 142.699C328.098 146.999 326.098 150.199 317.798 150.199C308.998 150.199 307.298 141.599 309.798 132.699C310.298 130.899 309.798 130.099 308.998 131.499L302.898 141.099C302.698 141.299 302.198 141.899 301.198 141.899H300.298C299.998 141.899 299.698 142.199 299.698 142.499C299.698 142.799 299.998 143.099 300.298 143.099C301.098 143.099 301.398 143.499 301.098 143.899L298.798 147.299C295.198 138.899 288.998 128.599 285.698 124.799L285.798 124.599C293.898 124.099 305.798 116.499 307.798 109.699C311.098 97.9992 299.698 93.5992 293.498 93.5992H266.098C262.498 93.5992 262.198 96.3992 265.698 96.3992C267.598 96.3992 269.198 98.0992 268.398 99.6992L262.298 110.599C261.798 111.499 259.898 111.499 257.498 111.499H254.798C254.498 111.499 254.198 111.799 254.198 112.099C254.198 112.399 254.498 112.699 254.798 112.699H257.398C259.198 112.699 260.998 112.799 260.498 114.099L253.298 126.999C252.898 127.599 251.998 127.699 249.598 127.699H246.898C246.598 127.699 246.298 127.999 246.298 128.299C246.298 128.599 246.598 128.899 246.898 128.899H249.498C251.498 128.899 252.198 129.199 251.598 130.199L241.998 147.499C240.798 148.799 239.498 148.999 237.198 148.999C233.798 148.999 233.798 151.799 237.398 151.799H260.798C264.398 151.799 263.598 148.899 261.398 148.899C260.098 148.899 258.798 146.499 259.598 145.199L271.498 122.499H272.698C277.998 122.499 279.298 131.299 280.298 140.699C280.398 141.399 279.098 141.399 276.498 141.399H269.798C269.498 141.399 269.198 141.699 269.198 141.999C269.198 142.299 269.498 142.599 269.798 142.599H276.398C278.198 142.599 280.498 142.599 280.598 143.199C281.098 147.299 281.398 151.099 282.198 154.399C282.498 155.499 280.598 155.299 278.598 155.299H269.998C269.698 155.299 269.398 155.599 269.398 155.899C269.398 156.199 269.698 156.499 269.998 156.499H278.498C281.198 156.499 282.498 156.499 282.598 156.999C286.198 170.399 301.898 180.899 317.098 180.299C330.098 179.799 341.098 172.699 346.698 168.199C354.198 162.199 365.198 149.599 369.698 140.399C370.498 138.399 371.898 136.199 371.598 134.699ZM283.798 116.899C281.898 118.399 279.098 120.099 278.598 119.599C277.798 118.799 275.398 117.099 274.098 116.499L284.898 96.6992C285.398 95.9992 285.898 95.5992 287.098 95.5992C291.298 95.5992 292.698 100.199 290.698 105.899C289.298 109.899 287.098 114.299 283.798 116.899Z" fill="#542C81"/>
<path d="M151.998 75.6992C149.798 78.5992 146.898 79.1992 143.598 79.1992H142.698L148.498 67.7992C148.798 67.2992 149.398 66.8992 150.198 66.8992C150.898 66.8992 150.798 65.3992 149.898 65.3992H140.798C139.998 65.3992 139.698 66.8992 140.498 66.8992C141.298 66.8992 141.398 67.7992 141.098 68.4992L135.998 78.5992C135.598 79.1992 135.098 79.2992 134.398 79.4992C133.598 79.6992 133.098 81.0992 133.998 81.0992H148.498C149.598 81.0992 149.898 80.6992 150.198 80.2992L153.198 75.7992C153.198 75.2992 152.398 75.1992 151.998 75.6992Z" fill="#542C81"/>
<path d="M296.198 69.8992L297.498 67.4992C298.098 66.4992 297.098 65.2992 295.698 65.2992H278.798C277.598 65.2992 277.898 66.5992 278.398 66.5992C279.498 66.5992 279.798 67.8992 279.198 69.0992L274.098 78.4992C273.298 79.3992 272.798 79.7992 271.698 79.7992C270.798 79.7992 270.498 81.0992 271.698 81.0992H288.798C289.498 81.0992 289.798 80.7992 290.098 80.4992L292.498 77.3992C293.098 76.5992 291.798 76.5992 291.498 76.9992C288.498 79.9992 285.398 79.8992 282.998 79.8992H280.998L283.398 74.6992H283.898C285.398 74.6992 287.098 74.6992 287.598 75.8992C287.698 76.1992 288.498 76.3992 288.798 75.8992L290.798 71.8992C291.098 71.2992 290.198 71.1992 289.998 71.5992C289.198 72.9992 285.798 72.5992 284.798 72.5992H284.298L287.298 66.7992H290.498C292.598 66.7992 294.198 68.2992 294.798 69.7992C294.998 70.0992 295.998 70.3992 296.198 69.8992Z" fill="#542C81"/>
<path d="M359.598 65.8992C359.198 66.0992 358.098 66.2992 357.598 65.8992C356.398 64.8992 354.198 64.1992 352.998 64.1992C349.598 64.1992 347.098 64.8992 345.598 68.0992C344.298 70.8992 345.598 73.0992 348.698 74.5992C349.998 75.1992 351.798 75.9992 351.098 77.5992C350.598 78.7992 349.198 78.8992 347.998 78.8992C346.398 78.8992 343.998 77.6992 343.598 75.3992C343.498 74.5992 342.598 74.7992 342.298 75.1992L340.198 79.2992C339.898 79.8992 340.698 80.4992 341.098 80.0992C341.798 79.2992 343.398 79.1992 344.098 79.6992C345.098 80.3992 347.698 81.5992 349.298 81.5992C352.698 81.5992 354.998 80.6992 356.998 77.7992C358.798 74.9992 357.698 72.3992 354.498 70.8992C352.798 70.0992 351.398 68.6992 352.098 67.1992C352.598 66.1992 354.098 66.3992 354.898 66.4992C356.298 66.6992 358.098 68.0992 358.298 69.2992C358.398 69.7992 358.998 69.8992 359.298 69.3992L360.398 66.7992C360.598 66.0992 359.798 65.6992 359.598 65.8992Z" fill="#542C81"/>
<path d="M314.198 75.6992C311.998 78.5992 309.098 79.1992 305.798 79.1992H304.898L310.698 67.7992C310.998 67.2992 311.598 66.8992 312.398 66.8992C313.098 66.8992 312.998 65.3992 312.098 65.3992H302.998C302.198 65.3992 301.898 66.8992 302.698 66.8992C303.498 66.8992 303.598 67.7992 303.298 68.4992L298.198 78.5992C297.798 79.1992 297.298 79.2992 296.598 79.4992C295.798 79.6992 295.298 81.0992 296.198 81.0992H310.698C311.798 81.0992 312.098 80.6992 312.398 80.2992L315.398 75.7992C315.398 75.2992 314.598 75.1992 314.198 75.6992Z" fill="#542C81"/>
<path d="M335.998 66.7992C338.098 66.7992 339.698 68.2992 340.298 69.7992C340.398 70.1992 341.498 70.4992 341.798 69.9992L343.098 67.5992C343.698 66.5992 342.698 65.3992 341.298 65.3992H324.398C323.198 65.3992 323.498 66.6992 323.998 66.6992C325.098 66.6992 325.398 67.9992 324.798 69.1992L319.698 78.5992C318.898 79.4992 318.398 79.8992 317.298 79.8992C316.398 79.8992 316.098 81.1992 317.298 81.1992H334.398C335.098 81.1992 335.398 80.8992 335.698 80.5992L338.098 77.4992C338.698 76.6992 337.398 76.6992 337.098 77.0992C334.098 80.0992 330.998 79.9992 328.598 79.9992H326.598L328.998 74.7992H329.498C330.998 74.7992 332.698 74.7992 333.198 75.8992C333.298 76.1992 334.098 76.3992 334.398 75.8992L336.398 71.8992C336.698 71.2992 335.798 71.1992 335.598 71.5992C334.798 72.9992 331.398 72.5992 330.398 72.5992H329.898L332.898 66.7992H336.098H335.998Z" fill="#542C81"/>
<path d="M252.898 65.3992H246.898C245.698 65.3992 245.998 66.6992 246.498 66.6992C247.798 66.6992 248.998 68.1992 248.298 69.5992L245.798 74.0992L240.298 65.9992C239.898 65.4992 238.998 65.1992 238.298 65.1992H232.398C231.198 65.1992 231.398 66.4992 231.998 66.4992C233.298 66.4992 232.898 67.4992 232.598 68.0992L227.898 77.1992C227.598 77.8992 226.298 77.9992 225.898 77.0992L222.298 65.1992C222.098 64.6992 219.998 64.6992 219.398 65.1992L210.198 72.7992H205.498C204.498 72.7992 204.198 73.1992 204.198 73.6992C204.198 74.1992 204.598 74.6992 205.598 74.6992H208.098L205.598 76.7992C204.198 77.7992 202.798 79.2992 201.898 79.2992H201.298C200.398 79.2992 199.898 79.3992 199.898 80.1992C199.898 80.8992 200.298 81.1992 201.098 81.1992H208.498C209.898 81.1992 209.598 79.3992 208.898 79.3992C208.098 79.3992 206.798 78.3992 207.998 76.9992L210.298 74.7992H214.698C217.398 74.7992 219.098 77.8992 217.698 78.7992L216.498 79.4992C215.898 79.7992 215.698 81.1992 216.498 81.1992H230.998C232.098 81.1992 231.898 79.7992 231.398 79.7992C229.898 79.7992 230.598 77.5992 230.898 77.0992L234.698 69.8992L239.998 80.1992C240.398 80.8992 240.698 81.1992 241.298 81.1992H243.398C244.098 81.1992 244.298 80.7992 244.598 80.2992L250.698 69.3992C251.698 67.3992 252.498 66.7992 253.698 66.7992C253.798 66.7992 254.198 65.3992 252.898 65.3992ZM212.498 72.8992L218.098 68.2992V72.8992H212.498Z" fill="#542C81"/>
<path d="M167.398 64.7992C162.298 64.7992 157.098 67.2992 156.098 72.6992C155.198 77.2992 158.398 82.1992 164.098 82.1992C169.498 82.1992 174.398 78.6992 175.498 73.4992C176.398 68.2992 172.498 64.7992 167.398 64.7992ZM168.798 74.5992C167.198 77.7992 164.498 79.6992 162.798 78.7992C161.098 77.8992 160.998 74.6992 162.598 71.3992C164.198 68.1992 166.898 66.2992 168.598 67.1992C170.398 68.0992 170.498 71.2992 168.798 74.5992Z" fill="#542C81"/>
<path d="M195.598 65.8992C195.198 66.0992 194.098 66.2992 193.598 65.8992C192.398 64.8992 190.198 64.1992 188.998 64.1992C185.598 64.1992 183.098 64.8992 181.598 68.0992C180.298 70.8992 181.598 73.0992 184.698 74.5992C185.998 75.1992 187.798 75.9992 187.098 77.5992C186.598 78.7992 185.198 78.8992 183.998 78.8992C182.398 78.8992 179.998 77.6992 179.598 75.3992C179.498 74.5992 178.598 74.7992 178.298 75.1992L176.198 79.2992C175.898 79.8992 176.698 80.4992 177.098 80.0992C177.798 79.2992 179.298 79.1992 180.098 79.6992C181.098 80.3992 183.698 81.5992 185.298 81.5992C188.698 81.5992 190.998 80.6992 192.998 77.7992C194.798 74.9992 193.698 72.3992 190.498 70.8992C188.798 70.0992 187.398 68.6992 188.098 67.1992C188.598 66.1992 190.098 66.3992 190.898 66.4992C192.298 66.6992 194.098 68.0992 194.298 69.2992C194.398 69.7992 194.998 69.8992 195.298 69.3992L196.398 66.7992C196.698 66.0992 195.898 65.6992 195.598 65.8992Z" fill="#542C81"/>
<path d="M270.098 72.4992H263.598C262.398 72.4992 262.698 73.7992 263.198 73.7992C263.698 73.7992 264.198 74.0992 264.198 74.8992C264.198 77.5992 263.098 78.4992 260.898 78.4992C258.398 78.4992 257.598 75.3992 259.198 71.7992C260.298 69.3992 263.098 67.2992 266.498 67.2992C268.598 67.2992 270.198 67.7992 270.498 69.6992C270.598 70.1992 271.298 70.1992 271.498 69.6992L273.098 66.8992C273.298 66.5992 272.998 66.1992 272.498 66.1992C272.098 66.1992 271.198 66.6992 270.598 66.2992C269.298 65.2992 266.498 64.3992 264.298 64.3992C260.798 64.3992 255.898 65.1992 252.598 70.8992C249.598 76.0992 253.998 81.4992 257.998 81.4992C260.298 81.4992 262.798 79.7992 264.298 79.1992L265.998 80.2992C266.298 80.5992 266.798 80.9992 267.298 80.9992H267.898C268.498 80.9992 268.698 80.1992 268.898 79.6992L271.498 73.4992C271.698 72.9992 271.498 72.4992 270.098 72.4992Z" fill="#542C81"/>
</svg>
